<svg width="208" height="131" viewBox="0 0 208 131" fill="none" xmlns="http://www.w3.org/2000/svg">
<rect width="207.039" height="130.435" rx="20" fill="white" fill-opacity="0.63"/>
<path d="M34.6124 29.9975L43.3335 27.617L42.8717 26.6834C42.5695 26.0766 41.8325 25.8261 41.2257 26.1282L33.4185 29.9975H34.6124Z" fill="#5C5146"/>
<path d="M46.0406 27.6855C45.9326 27.6855 45.8245 27.7003 45.7164 27.7298L43.6675 28.2899L37.4104 29.9973H44.5126H47.608L47.2248 28.5921C47.0774 28.0442 46.5811 27.6855 46.0406 27.6855Z" fill="#5C5146"/>
<path d="M48.8879 30.8574H48.6079H48.2271H47.8463H44.9401H34.261H32.8607H31.6815H31.4629H30.7308C30.3426 30.8574 29.9962 31.0368 29.7702 31.3193C29.6671 31.4495 29.5884 31.5993 29.5442 31.7639C29.5172 31.8671 29.5 31.9752 29.5 32.0858V32.2332V33.6334V45.7718C29.5 46.4499 30.0503 47.0001 30.7283 47.0001H48.8855C49.5636 47.0001 50.1138 46.4499 50.1138 45.7718V42.3448H42.8249C41.6727 42.3448 40.7368 41.4088 40.7368 40.2566V39.1314V38.7507V38.3699V37.5248C40.7368 36.9598 40.9627 36.4463 41.3288 36.0705C41.6531 35.7363 42.0879 35.5103 42.5743 35.4538C42.6554 35.444 42.7389 35.4391 42.8225 35.4391H49.0919H49.4726H49.8534H50.1138V32.0858C50.1163 31.4077 49.566 30.8574 48.8879 30.8574Z" fill="#5C5146"/>
<path d="M50.9762 36.6128C50.8534 36.4998 50.7084 36.4138 50.5463 36.3573C50.421 36.3156 50.2883 36.291 50.1483 36.291H50.1164H50.0918H49.711H48.3378H42.825C42.1469 36.291 41.5967 36.8413 41.5967 37.5193V38.131V38.5118V38.8926V40.2536C41.5967 40.9316 42.1469 41.4819 42.825 41.4819H50.1164H50.1483C50.2883 41.4819 50.421 41.4573 50.5463 41.4156C50.7084 41.3615 50.8534 41.2731 50.9762 41.1601C51.2219 40.9365 51.3766 40.6123 51.3766 40.2536V37.5193C51.3766 37.1606 51.2219 36.8363 50.9762 36.6128ZM45.3898 39.1309C45.3898 39.4699 45.1146 39.7451 44.7756 39.7451H44.3678C44.0288 39.7451 43.7536 39.4699 43.7536 39.1309V38.7231C43.7536 38.5266 43.8445 38.3521 43.9895 38.2416C44.0951 38.1605 44.2253 38.1089 44.3678 38.1089H44.471H44.7756C45.1146 38.1089 45.3898 38.384 45.3898 38.7231V39.1309Z" fill="#5C5146"/>
<path d="M63.2 43V29H67.82C68.5733 29 69.25 29.1833 69.85 29.55C70.4567 29.9167 70.9367 30.4133 71.29 31.04C71.65 31.66 71.83 32.3533 71.83 33.12C71.83 33.9 71.6467 34.6033 71.28 35.23C70.92 35.85 70.4333 36.3433 69.82 36.71C69.2133 37.07 68.5467 37.25 67.82 37.25H64.88V43H63.2ZM64.88 35.57H67.67C68.1233 35.57 68.5367 35.46 68.91 35.24C69.29 35.0133 69.59 34.71 69.81 34.33C70.0367 33.9433 70.15 33.51 70.15 33.03C70.15 32.5433 70.0367 32.11 69.81 31.73C69.59 31.3433 69.29 31.04 68.91 30.82C68.5367 30.5933 68.1233 30.48 67.67 30.48H64.88V35.57ZM81.0252 33H82.7052V43H81.0252L80.9552 41.31C80.6418 41.89 80.2085 42.36 79.6552 42.72C79.1085 43.08 78.4552 43.26 77.6952 43.26C76.9618 43.26 76.2752 43.1233 75.6352 42.85C74.9952 42.57 74.4285 42.1867 73.9352 41.7C73.4485 41.2067 73.0685 40.64 72.7952 40C72.5218 39.36 72.3852 38.67 72.3852 37.93C72.3852 37.2167 72.5185 36.5433 72.7852 35.91C73.0518 35.2767 73.4218 34.7233 73.8952 34.25C74.3752 33.77 74.9285 33.3967 75.5552 33.13C76.1818 32.8567 76.8552 32.72 77.5752 32.72C78.3618 32.72 79.0518 32.9067 79.6452 33.28C80.2385 33.6467 80.7185 34.1233 81.0852 34.71L81.0252 33ZM77.6652 41.63C78.3252 41.63 78.8952 41.47 79.3752 41.15C79.8618 40.8233 80.2352 40.3833 80.4952 39.83C80.7618 39.2767 80.8952 38.6667 80.8952 38C80.8952 37.32 80.7618 36.7067 80.4952 36.16C80.2285 35.6067 79.8518 35.17 79.3652 34.85C78.8852 34.5233 78.3185 34.36 77.6652 34.36C77.0052 34.36 76.4052 34.5233 75.8652 34.85C75.3252 35.1767 74.8952 35.6167 74.5752 36.17C74.2618 36.7167 74.1052 37.3267 74.1052 38C74.1052 38.6733 74.2685 39.2867 74.5952 39.84C74.9218 40.3867 75.3552 40.8233 75.8952 41.15C76.4352 41.47 77.0252 41.63 77.6652 41.63ZM91.2414 33H93.0214L87.5514 48H85.7714L87.5814 43L83.9914 33H85.8314L88.4214 40.69L91.2414 33ZM94.782 43V33H96.462V34.25C96.8154 33.7833 97.2587 33.4133 97.792 33.14C98.332 32.86 98.9187 32.72 99.552 32.72C100.292 32.72 100.969 32.9 101.582 33.26C102.195 33.62 102.679 34.0967 103.032 34.69C103.385 34.0967 103.865 33.62 104.472 33.26C105.085 32.9 105.759 32.72 106.492 32.72C107.245 32.72 107.929 32.9033 108.542 33.27C109.155 33.63 109.642 34.1167 110.002 34.73C110.369 35.3433 110.552 36.0267 110.552 36.78V43H108.872V37.18C108.872 36.6867 108.752 36.23 108.512 35.81C108.272 35.39 107.949 35.0533 107.542 34.8C107.135 34.5467 106.685 34.42 106.192 34.42C105.699 34.42 105.249 34.54 104.842 34.78C104.435 35.0133 104.112 35.34 103.872 35.76C103.632 36.1733 103.512 36.6467 103.512 37.18V43H101.832V37.18C101.832 36.6467 101.712 36.1733 101.472 35.76C101.232 35.34 100.905 35.0133 100.492 34.78C100.085 34.54 99.6354 34.42 99.142 34.42C98.6554 34.42 98.2054 34.5467 97.792 34.8C97.3854 35.0533 97.062 35.39 96.822 35.81C96.582 36.23 96.462 36.6867 96.462 37.18V43H94.782ZM116.76 43.26C115.84 43.26 115 43.0233 114.24 42.55C113.487 42.0767 112.883 41.4433 112.43 40.65C111.983 39.85 111.76 38.9667 111.76 38C111.76 37.2667 111.89 36.5833 112.15 35.95C112.41 35.31 112.767 34.75 113.22 34.27C113.68 33.7833 114.213 33.4033 114.82 33.13C115.427 32.8567 116.073 32.72 116.76 32.72C117.513 32.72 118.203 32.8733 118.83 33.18C119.463 33.48 120.003 33.9 120.45 34.44C120.903 34.98 121.24 35.6067 121.46 36.32C121.687 37.0333 121.77 37.7967 121.71 38.61H113.55C113.63 39.1767 113.817 39.6833 114.11 40.13C114.403 40.57 114.777 40.92 115.23 41.18C115.69 41.44 116.2 41.5733 116.76 41.58C117.36 41.58 117.903 41.4267 118.39 41.12C118.877 40.8067 119.27 40.38 119.57 39.84L121.28 40.24C120.88 41.1267 120.277 41.8533 119.47 42.42C118.663 42.98 117.76 43.26 116.76 43.26ZM113.5 37.29H120.02C119.967 36.73 119.787 36.22 119.48 35.76C119.173 35.2933 118.783 34.92 118.31 34.64C117.837 34.36 117.32 34.22 116.76 34.22C116.2 34.22 115.687 34.3567 115.22 34.63C114.753 34.9033 114.367 35.2733 114.06 35.74C113.76 36.2 113.573 36.7167 113.5 37.29ZM132.235 36.78V43H130.555V37.15C130.555 36.6433 130.432 36.1833 130.185 35.77C129.939 35.3567 129.609 35.03 129.195 34.79C128.782 34.5433 128.322 34.42 127.815 34.42C127.315 34.42 126.855 34.5433 126.435 34.79C126.022 35.03 125.692 35.3567 125.445 35.77C125.199 36.1833 125.075 36.6433 125.075 37.15V43H123.395V33H125.075V34.25C125.429 33.7833 125.875 33.4133 126.415 33.14C126.955 32.86 127.542 32.72 128.175 32.72C128.922 32.72 129.602 32.9033 130.215 33.27C130.835 33.63 131.325 34.1167 131.685 34.73C132.052 35.3433 132.235 36.0267 132.235 36.78ZM139.415 34.68H137.145L137.135 43H135.455L135.465 34.68H133.745V33H135.465L135.455 29.86H137.135L137.145 33H139.415V34.68Z" fill="#5C5146"/>
<path d="M31.584 95V78.816H29.12L30.044 75.4H35V95H31.584ZM44.9422 95.364C43.6822 95.364 42.5435 95.0607 41.5262 94.454C40.5089 93.838 39.7015 93.0213 39.1042 92.004C38.5162 90.9867 38.2222 89.8713 38.2222 88.658H41.6382C41.6382 89.2647 41.7875 89.82 42.0862 90.324C42.3849 90.8187 42.7815 91.2153 43.2762 91.514C43.7802 91.8033 44.3355 91.948 44.9422 91.948C45.5489 91.948 46.0995 91.8033 46.5942 91.514C47.0889 91.2153 47.4855 90.8187 47.7842 90.324C48.0829 89.82 48.2322 89.2647 48.2322 88.658C48.2322 88.0513 48.1015 87.496 47.8402 86.992C47.5882 86.4787 47.1729 86.0727 46.5942 85.774C46.0249 85.466 45.2689 85.312 44.3262 85.312H39.2862L41.3582 75.4H50.9902V78.816H44.1302L43.5002 81.896L44.8862 81.91C46.2115 81.9567 47.3829 82.2787 48.4002 82.876C49.4175 83.4733 50.2109 84.276 50.7802 85.284C51.3589 86.2827 51.6482 87.4073 51.6482 88.658C51.6482 89.5727 51.4755 90.436 51.1302 91.248C50.7849 92.06 50.3042 92.774 49.6882 93.39C49.0722 94.006 48.3582 94.4913 47.5462 94.846C46.7435 95.1913 45.8755 95.364 44.9422 95.364ZM59.7323 93.6V88.308H54.4403V84.892H59.7323V79.6H63.1483V84.892H68.4403V88.308H63.1483V93.6H59.7323Z" fill="url(#paint0_linear_110_1130)"/>
<defs>
<linearGradient id="paint0_linear_110_1130" x1="-31.7862" y1="68" x2="74.4119" y2="151.418" gradientUnits="userSpaceOnUse">
<stop stop-color="#FFF9F4"/>
<stop offset="0.793443" stop-color="#201B17"/>
</linearGradient>
</defs>
</svg>
