<svg width="208" height="131" viewBox="0 0 208 131" fill="none" xmlns="http://www.w3.org/2000/svg">
<rect width="207.039" height="130.435" rx="20" fill="white" fill-opacity="0.63"/>
<path d="M40 30.2969C41.1865 30.2969 42.1484 29.335 42.1484 28.1484C42.1484 26.9619 41.1865 26 40 26C38.8135 26 37.8516 26.9619 37.8516 28.1484C37.8516 29.335 38.8135 30.2969 40 30.2969Z" fill="#5C5146"/>
<path d="M36.1364 42.209C35.53 42.8582 34.6673 43.2652 33.7109 43.2652C32.7545 43.2652 31.8919 42.8582 31.2854 42.209C30.5102 42.7366 30 43.626 30 44.6324V45.4136C30 45.7372 30.2623 45.9996 30.5859 45.9996H36.8359C37.1595 45.9996 37.4219 45.7372 37.4219 45.4136V44.6324C37.4219 43.626 36.9117 42.7366 36.1364 42.209Z" fill="#5C5146"/>
<path d="M48.7146 42.209C48.1081 42.8582 47.2455 43.2652 46.2891 43.2652C45.3327 43.2652 44.47 42.8582 43.8636 42.209C43.0883 42.7366 42.5781 43.626 42.5781 44.6324V45.4136C42.5781 45.7372 42.8405 45.9996 43.1641 45.9996H49.4141C49.7377 45.9996 50 45.7372 50 45.4136V44.6324C50 43.626 49.4898 42.7366 48.7146 42.209Z" fill="#5C5146"/>
<path d="M44.1688 40.2906C44.3347 41.3114 45.2221 42.0933 46.2891 42.0933C47.4737 42.0933 48.4375 41.1295 48.4375 39.9449C48.4375 38.7602 47.4737 37.7964 46.2891 37.7964C45.4013 37.7964 44.6376 38.3377 44.3106 39.1075L41.7561 38.3142C41.7279 37.58 41.2475 36.96 40.5859 36.7254V34.2027H43.125C43.4486 34.2027 43.7109 33.9404 43.7109 33.6168V32.8355C43.7109 31.8291 43.2007 30.9397 42.4255 30.4121C41.8191 31.0613 40.9564 31.4683 40 31.4683C39.0436 31.4683 38.1809 31.0613 37.5745 30.4121C36.7993 30.9397 36.2891 31.8291 36.2891 32.8355V33.6168C36.2891 33.9404 36.5514 34.2027 36.875 34.2027H39.4141V36.7254C38.7525 36.96 38.2721 37.58 38.2439 38.3142L35.6894 39.1075C35.3624 38.3377 34.5987 37.7964 33.7109 37.7964C32.5263 37.7964 31.5625 38.7602 31.5625 39.9449C31.5625 41.1295 32.5263 42.0933 33.7109 42.0933C34.7779 42.0933 35.6653 41.3114 35.8312 40.2906L38.5917 39.4333C38.9125 39.8621 39.4244 40.1402 40 40.1402C40.5756 40.1402 41.0875 39.8621 41.4083 39.4332L44.1688 40.2906Z" fill="#5C5146"/>
<path d="M68.68 43.26C67.56 43.26 66.5867 42.9867 65.76 42.44C64.94 41.8933 64.3067 41.16 63.86 40.24C63.42 39.3133 63.2 38.2867 63.2 37.16V29H64.88V37.16C64.88 37.96 65.0267 38.6967 65.32 39.37C65.62 40.0433 66.05 40.58 66.61 40.98C67.1767 41.38 67.8667 41.58 68.68 41.58C69.5067 41.58 70.2 41.38 70.76 40.98C71.32 40.5733 71.7433 40.0367 72.03 39.37C72.3233 38.6967 72.47 37.96 72.47 37.16V29H74.15V37.16C74.15 38.0067 74.0233 38.8 73.77 39.54C73.5167 40.2733 73.15 40.92 72.67 41.48C72.1967 42.04 71.6233 42.4767 70.95 42.79C70.2767 43.1033 69.52 43.26 68.68 43.26ZM79.6094 43.19C79.0694 43.17 78.5427 43.07 78.0294 42.89C77.5227 42.7033 77.076 42.4533 76.6894 42.14C76.3094 41.82 76.0327 41.4533 75.8594 41.04L77.2994 40.42C77.3994 40.6467 77.5794 40.86 77.8394 41.06C78.0994 41.26 78.3994 41.42 78.7394 41.54C79.0794 41.66 79.4227 41.72 79.7694 41.72C80.136 41.72 80.4794 41.6633 80.7994 41.55C81.1194 41.4367 81.3794 41.27 81.5794 41.05C81.786 40.8233 81.8894 40.5533 81.8894 40.24C81.8894 39.9067 81.776 39.6467 81.5494 39.46C81.3294 39.2667 81.0494 39.1167 80.7094 39.01C80.376 38.8967 80.036 38.79 79.6894 38.69C79.0027 38.5167 78.3894 38.31 77.8494 38.07C77.3094 37.8233 76.8827 37.5133 76.5694 37.14C76.2627 36.76 76.1094 36.2767 76.1094 35.69C76.1094 35.07 76.2794 34.5333 76.6194 34.08C76.966 33.6267 77.4194 33.2767 77.9794 33.03C78.5394 32.7833 79.1394 32.66 79.7794 32.66C80.586 32.66 81.3227 32.8333 81.9894 33.18C82.656 33.5267 83.1527 33.9967 83.4794 34.59L82.1294 35.38C82.016 35.14 81.8427 34.93 81.6094 34.75C81.376 34.5633 81.1094 34.4167 80.8094 34.31C80.5094 34.2033 80.2027 34.1467 79.8894 34.14C79.5027 34.1267 79.1394 34.1767 78.7994 34.29C78.466 34.4033 78.196 34.5767 77.9894 34.81C77.7894 35.0367 77.6894 35.32 77.6894 35.66C77.6894 35.9933 77.796 36.2467 78.0094 36.42C78.2294 36.5933 78.5127 36.7333 78.8594 36.84C79.2127 36.94 79.596 37.0567 80.0094 37.19C80.616 37.3833 81.1827 37.6067 81.7094 37.86C82.236 38.1133 82.6594 38.43 82.9794 38.81C83.306 39.19 83.466 39.66 83.4594 40.22C83.4594 40.8333 83.276 41.37 82.9094 41.83C82.5427 42.2833 82.066 42.63 81.4794 42.87C80.8994 43.11 80.276 43.2167 79.6094 43.19ZM89.475 43.26C88.555 43.26 87.715 43.0233 86.955 42.55C86.2017 42.0767 85.5983 41.4433 85.145 40.65C84.6983 39.85 84.475 38.9667 84.475 38C84.475 37.2667 84.605 36.5833 84.865 35.95C85.125 35.31 85.4817 34.75 85.935 34.27C86.395 33.7833 86.9283 33.4033 87.535 33.13C88.1417 32.8567 88.7883 32.72 89.475 32.72C90.2283 32.72 90.9183 32.8733 91.545 33.18C92.1783 33.48 92.7183 33.9 93.165 34.44C93.6183 34.98 93.955 35.6067 94.175 36.32C94.4017 37.0333 94.485 37.7967 94.425 38.61H86.265C86.345 39.1767 86.5317 39.6833 86.825 40.13C87.1183 40.57 87.4917 40.92 87.945 41.18C88.405 41.44 88.915 41.5733 89.475 41.58C90.075 41.58 90.6183 41.4267 91.105 41.12C91.5917 40.8067 91.985 40.38 92.285 39.84L93.995 40.24C93.595 41.1267 92.9917 41.8533 92.185 42.42C91.3783 42.98 90.475 43.26 89.475 43.26ZM86.215 37.29H92.735C92.6817 36.73 92.5017 36.22 92.195 35.76C91.8883 35.2933 91.4983 34.92 91.025 34.64C90.5517 34.36 90.035 34.22 89.475 34.22C88.915 34.22 88.4017 34.3567 87.935 34.63C87.4683 34.9033 87.0817 35.2733 86.775 35.74C86.475 36.2 86.2883 36.7167 86.215 37.29ZM96.1102 43V33H97.7902V34.25C98.1435 33.7833 98.5902 33.4133 99.1302 33.14C99.6702 32.86 100.257 32.72 100.89 32.72C101.277 32.72 101.65 32.77 102.01 32.87L101.33 34.55C101.057 34.4633 100.79 34.42 100.53 34.42C100.03 34.42 99.5702 34.5433 99.1502 34.79C98.7368 35.03 98.4068 35.3567 98.1602 35.77C97.9135 36.1833 97.7902 36.6433 97.7902 37.15V43H96.1102ZM106.289 43.19C105.749 43.17 105.222 43.07 104.709 42.89C104.202 42.7033 103.756 42.4533 103.369 42.14C102.989 41.82 102.712 41.4533 102.539 41.04L103.979 40.42C104.079 40.6467 104.259 40.86 104.519 41.06C104.779 41.26 105.079 41.42 105.419 41.54C105.759 41.66 106.102 41.72 106.449 41.72C106.816 41.72 107.159 41.6633 107.479 41.55C107.799 41.4367 108.059 41.27 108.259 41.05C108.466 40.8233 108.569 40.5533 108.569 40.24C108.569 39.9067 108.456 39.6467 108.229 39.46C108.009 39.2667 107.729 39.1167 107.389 39.01C107.056 38.8967 106.716 38.79 106.369 38.69C105.682 38.5167 105.069 38.31 104.529 38.07C103.989 37.8233 103.562 37.5133 103.249 37.14C102.942 36.76 102.789 36.2767 102.789 35.69C102.789 35.07 102.959 34.5333 103.299 34.08C103.646 33.6267 104.099 33.2767 104.659 33.03C105.219 32.7833 105.819 32.66 106.459 32.66C107.266 32.66 108.002 32.8333 108.669 33.18C109.336 33.5267 109.832 33.9967 110.159 34.59L108.809 35.38C108.696 35.14 108.522 34.93 108.289 34.75C108.056 34.5633 107.789 34.4167 107.489 34.31C107.189 34.2033 106.882 34.1467 106.569 34.14C106.182 34.1267 105.819 34.1767 105.479 34.29C105.146 34.4033 104.876 34.5767 104.669 34.81C104.469 35.0367 104.369 35.32 104.369 35.66C104.369 35.9933 104.476 36.2467 104.689 36.42C104.909 36.5933 105.192 36.7333 105.539 36.84C105.892 36.94 106.276 37.0567 106.689 37.19C107.296 37.3833 107.862 37.6067 108.389 37.86C108.916 38.1133 109.339 38.43 109.659 38.81C109.986 39.19 110.146 39.66 110.139 40.22C110.139 40.8333 109.956 41.37 109.589 41.83C109.222 42.2833 108.746 42.63 108.159 42.87C107.579 43.11 106.956 43.2167 106.289 43.19Z" fill="#5C5146"/>
<path d="M35.7 95.364C34.44 95.364 33.3013 95.0607 32.284 94.454C31.2667 93.838 30.4593 93.0213 29.862 92.004C29.274 90.9867 28.98 89.8713 28.98 88.658H32.396C32.396 89.2647 32.5453 89.82 32.844 90.324C33.1427 90.8187 33.5393 91.2153 34.034 91.514C34.538 91.8033 35.0933 91.948 35.7 91.948C36.3067 91.948 36.8573 91.8033 37.352 91.514C37.8467 91.2153 38.2433 90.8187 38.542 90.324C38.8407 89.82 38.99 89.2647 38.99 88.658C38.99 88.0513 38.8593 87.496 38.598 86.992C38.346 86.4787 37.9307 86.0727 37.352 85.774C36.7827 85.466 36.0267 85.312 35.084 85.312H30.044L32.116 75.4H41.748V78.816H34.888L34.258 81.896L35.644 81.91C36.9693 81.9567 38.1407 82.2787 39.158 82.876C40.1753 83.4733 40.9687 84.276 41.538 85.284C42.1167 86.2827 42.406 87.4073 42.406 88.658C42.406 89.5727 42.2333 90.436 41.888 91.248C41.5427 92.06 41.062 92.774 40.446 93.39C39.83 94.006 39.116 94.4913 38.304 94.846C37.5013 95.1913 36.6333 95.364 35.7 95.364ZM51.7005 95.364C50.5618 95.364 49.5258 95.1027 48.5925 94.58C47.6591 94.048 46.8518 93.3153 46.1705 92.382C45.4985 91.4487 44.9805 90.3707 44.6165 89.148C44.2525 87.916 44.0705 86.6 44.0705 85.2C44.0705 83.8 44.2525 82.4887 44.6165 81.266C44.9805 80.034 45.4985 78.9513 46.1705 78.018C46.8518 77.0847 47.6591 76.3567 48.5925 75.834C49.5258 75.302 50.5618 75.036 51.7005 75.036C52.8391 75.036 53.8751 75.302 54.8085 75.834C55.7418 76.3567 56.5398 77.0847 57.2025 78.018C57.8745 78.9513 58.3925 80.034 58.7565 81.266C59.1298 82.4887 59.3165 83.8 59.3165 85.2C59.3165 86.6 59.1298 87.916 58.7565 89.148C58.3925 90.3707 57.8745 91.4487 57.2025 92.382C56.5398 93.3153 55.7418 94.048 54.8085 94.58C53.8751 95.1027 52.8391 95.364 51.7005 95.364ZM51.7005 91.948C52.6991 91.948 53.5251 91.6307 54.1785 90.996C54.8318 90.3613 55.3171 89.5307 55.6345 88.504C55.9518 87.4773 56.1105 86.376 56.1105 85.2C56.1105 83.9587 55.9425 82.8293 55.6065 81.812C55.2705 80.7853 54.7758 79.9687 54.1225 79.362C53.4691 78.7553 52.6618 78.452 51.7005 78.452C50.9445 78.452 50.2865 78.6387 49.7265 79.012C49.1758 79.376 48.7185 79.8753 48.3545 80.51C47.9905 81.1447 47.7198 81.868 47.5425 82.68C47.3651 83.4827 47.2765 84.3227 47.2765 85.2C47.2765 86.3667 47.4351 87.468 47.7525 88.504C48.0791 89.5307 48.5691 90.3613 49.2225 90.996C49.8851 91.6307 50.7111 91.948 51.7005 91.948ZM66.5683 93.6V88.308H61.2763V84.892H66.5683V79.6H69.9843V84.892H75.2763V88.308H69.9843V93.6H66.5683Z" fill="url(#paint0_linear_110_1135)"/>
<defs>
<linearGradient id="paint0_linear_110_1135" x1="-31.7862" y1="68" x2="74.4119" y2="151.418" gradientUnits="userSpaceOnUse">
<stop stop-color="#FFF9F4"/>
<stop offset="0.793443" stop-color="#201B17"/>
</linearGradient>
</defs>
</svg>
