<svg width="122" height="56" viewBox="0 0 122 56" fill="none" xmlns="http://www.w3.org/2000/svg">
<rect x="0.5" y="0.5" width="121" height="55" rx="27.5" stroke="#B4ACA4"/>
<g clip-path="url(#clip0_110_1307)">
<path d="M32.7924 18.8133C33.4155 18.8118 33.8196 18.9743 33.9795 19.6094C34.3244 20.9706 34.9623 23.514 35.8949 27.2426C35.9008 27.265 35.9289 27.2739 35.9467 27.259C35.9496 27.2575 35.9541 27.2561 35.96 27.2561C35.963 27.2546 35.9689 27.2486 35.9718 27.2382L39.141 16.0805C39.1543 16.0328 39.1987 16 39.2475 16L41.5197 16.0045C41.5596 16.0045 41.5892 16.0432 41.5774 16.082C41.5744 16.0939 40.1993 20.6247 37.452 29.6742C37.27 30.2736 36.8392 30.5807 36.1598 30.5941C35.3279 30.612 34.6574 30.5762 34.4206 29.6772C34.3421 29.3791 33.8196 27.2754 32.8516 23.3679C32.8368 23.3082 32.8175 23.2784 32.7938 23.2784C32.7716 23.2784 32.7524 23.3082 32.7376 23.3679C31.774 27.2769 31.2544 29.3805 31.176 29.6787C30.9406 30.5792 30.2701 30.615 29.4382 30.5986C28.7588 30.5852 28.328 30.2795 28.1445 29.6802C25.3869 20.6336 24.0058 16.1044 24.0029 16.0924C23.991 16.0537 24.0206 16.0149 24.0606 16.0149L26.3327 16.0075C26.3816 16.0075 26.4245 16.0403 26.4393 16.088L29.6217 27.2426C29.6262 27.2516 29.6306 27.259 29.6336 27.2605C29.6395 27.2605 29.644 27.2605 29.6469 27.2635C29.6647 27.2784 29.6928 27.2695 29.6987 27.2471C30.6268 23.517 31.2618 20.972 31.6052 19.6109C31.7636 18.9758 32.1677 18.8133 32.7924 18.8133Z" fill="#060010"/>
<path d="M81.9635 16.0781H83.799C83.836 16.0781 83.8671 16.1094 83.8671 16.1467C83.87 21.6793 83.87 24.5895 83.8656 24.8772C83.8552 25.654 83.913 26.2026 84.0373 26.5261C84.5124 27.7486 85.6433 28.5761 86.9563 28.6163C87.0051 28.6178 87.0451 28.6596 87.0451 28.7088V30.5753C87.0451 30.6305 86.9977 30.6752 86.9415 30.6707C84.5879 30.4993 82.973 29.3155 82.0953 27.1225C81.9443 26.7438 81.8673 26.0744 81.8658 25.5407C81.8614 21.3767 81.8614 18.2548 81.8688 16.175C81.8688 16.1214 81.9117 16.0781 81.9635 16.0781Z" fill="#060010"/>
<path d="M63.5851 25.4166C63.5851 26.2545 63.3986 27.0387 63.0285 27.7692C63.0108 27.8035 63.0197 27.8452 63.0478 27.8691C65.1097 29.6373 68.2522 28.0927 68.2507 25.4151C68.2507 22.7375 65.1053 21.196 63.0448 22.9656C63.0167 22.991 63.0093 23.0312 63.0256 23.0655C63.3986 23.796 63.5836 24.5802 63.5851 25.4166ZM61.5676 25.4151C61.5676 23.647 60.1451 22.2142 58.3896 22.2142C56.634 22.2142 55.2116 23.647 55.2116 25.4151C55.2116 27.1833 56.634 28.616 58.3896 28.616C60.1451 28.616 61.5676 27.1833 61.5676 25.4151ZM55.2959 21.2124C57.272 19.7975 59.8431 19.8318 61.6978 21.3823C61.7215 21.4017 61.757 21.4017 61.7807 21.3808C63.4948 19.9123 66.0482 19.796 67.9088 21.0275C68.8088 21.6238 69.4778 22.4498 69.9159 23.5053C70.2416 24.291 70.3437 25.1661 70.2238 26.1307C69.95 28.3253 68.2729 30.0577 66.1296 30.5527C65.9564 30.5929 65.496 30.6078 64.7485 30.6004C63.6606 30.5869 62.5934 30.162 61.8118 29.4718C61.7733 29.4375 61.7171 29.4375 61.6771 29.4703C60.9918 30.0353 60.2087 30.4006 59.328 30.5691C59.2081 30.5914 58.8055 30.6033 58.1202 30.6019C55.9413 30.5974 54.0629 28.9813 53.4279 26.9865C53.2518 26.4334 53.1748 25.5404 53.194 24.3074C53.2029 23.7796 53.2029 21.0767 53.1955 16.2001C53.1955 16.1419 53.2414 16.0957 53.2991 16.0957H55.1287C55.1731 16.0957 55.2086 16.1315 55.2086 16.1762V21.1676C55.2086 21.2124 55.2589 21.2392 55.2959 21.2124Z" fill="#060010"/>
<path d="M50.4039 24.3019C49.8369 23.0496 48.9281 22.3578 47.6773 22.2281C45.2261 21.9747 43.29 24.8163 44.6799 26.9795C45.2883 27.9247 46.1749 28.4733 47.3398 28.6254C47.3768 28.6299 47.405 28.6627 47.405 28.7V30.5799C47.405 30.6172 47.3739 30.6485 47.3369 30.6455C45.1817 30.5248 43.2885 29.1741 42.5262 27.1584C41.2976 23.9113 43.737 20.3287 47.1563 20.1961C48.8245 20.1319 50.2188 20.7313 51.3394 21.9925C51.9906 22.7275 52.4007 23.6728 52.5694 24.8282C52.5946 24.9996 52.6005 25.4946 52.5842 26.3161C52.5827 26.3638 52.5442 26.401 52.4969 26.401H47.4183C47.368 26.401 47.328 26.3608 47.328 26.3101V24.4599C47.328 24.4107 47.3665 24.372 47.4138 24.372H50.3595C50.395 24.372 50.4187 24.3347 50.4039 24.3019Z" fill="#060010"/>
<path d="M76.0559 20.2441C78.4272 20.2441 80.3618 21.7842 81.0605 24.0265C81.2174 24.5319 81.2825 25.3757 81.2559 26.5609C81.247 26.9635 81.247 28.2963 81.2559 30.561C81.2559 30.6146 81.2129 30.6579 81.1597 30.6579H79.3212C79.2724 30.6579 79.2324 30.6176 79.2309 30.5684C79.2206 29.9661 79.2206 28.3008 79.2309 25.5725C79.2398 23.7551 77.8869 22.2747 76.0544 22.2747C74.2219 22.2747 72.8675 23.7551 72.8764 25.5725C72.8883 28.3008 72.8897 29.9661 72.8794 30.5684C72.8779 30.6176 72.8379 30.6579 72.7891 30.6579H70.9507C70.8974 30.6579 70.8545 30.6146 70.8545 30.561C70.8619 28.2963 70.8619 26.9635 70.853 26.5609C70.8263 25.3757 70.8915 24.5319 71.0484 24.0265C71.747 21.7842 73.6831 20.2441 76.0544 20.2441H76.0559Z" fill="#060010"/>
<path d="M97.997 20.347C97.9866 21.5173 97.9881 23.937 98 27.606C98.0059 29.3638 97.9585 30.4417 97.8564 30.8368C97.2821 33.0641 95.2438 34.7846 92.8947 34.7622C92.8444 34.7622 92.8044 34.722 92.8044 34.6713V32.845C92.8044 32.7973 92.8414 32.7585 92.8888 32.7555C94.147 32.6675 95.0706 32.0772 95.6583 30.9829C95.8951 30.5401 95.9262 30.142 95.978 29.6456C95.981 29.6187 95.9514 29.6023 95.9292 29.6172C92.9451 31.7223 88.9248 30.4536 87.8369 26.9053C87.6918 26.4327 87.6208 25.8364 87.6252 25.1163C87.6341 23.3496 87.6341 21.7574 87.6252 20.3381C87.6252 20.2874 87.6652 20.2456 87.7155 20.2456H89.5658C89.6057 20.2456 89.6368 20.2769 89.6368 20.3157C89.6472 22.5803 89.6472 24.0623 89.6368 24.7645C89.6161 26.148 89.847 27.1484 90.8935 27.9534C91.5551 28.4618 92.2967 28.678 93.1182 28.6019C94.3379 28.4901 95.4821 27.5911 95.8537 26.3999C95.9484 26.0973 95.9913 25.5919 95.981 24.8837C95.981 24.8584 95.981 23.3451 95.9795 20.344C95.9795 20.2889 96.0239 20.2441 96.0787 20.2441H97.8964C97.9526 20.2441 97.997 20.2904 97.997 20.347Z" fill="#060010"/>
<path d="M41.1468 35.1913C41.1468 35.4209 40.9617 35.6073 40.7338 35.6073C40.5058 35.6073 40.3208 35.4209 40.3208 35.1913C40.3208 34.9617 40.5058 34.7754 40.7338 34.7754C40.9617 34.7754 41.1468 34.9617 41.1468 35.1913Z" fill="#060010"/>
<path d="M46.4754 35.1913C46.4754 35.4209 46.2903 35.6073 46.0624 35.6073C45.8344 35.6073 45.6494 35.4209 45.6494 35.1913C45.6494 34.9617 45.8344 34.7754 46.0624 34.7754C46.2903 34.7754 46.4754 34.9617 46.4754 35.1913Z" fill="#060010"/>
<path d="M83.6287 35.1913C83.6287 35.4209 83.4437 35.6073 83.2157 35.6073C82.9878 35.6073 82.8027 35.4209 82.8027 35.1913C82.8027 34.9617 82.9878 34.7754 83.2157 34.7754C83.4437 34.7754 83.6287 34.9617 83.6287 35.1913Z" fill="#060010"/>
<path d="M53.3169 34.9316H52.7515C52.7253 34.9316 52.7041 34.953 52.7041 34.9793V38.9063C52.7041 38.9326 52.7253 38.954 52.7515 38.954H53.3169C53.3431 38.954 53.3643 38.9326 53.3643 38.9063V34.9793C53.3643 34.953 53.3431 34.9316 53.3169 34.9316Z" fill="#060010"/>
<path d="M66.3605 38.3994C66.8386 38.3964 67.2249 37.976 67.222 37.4587C67.219 36.9413 66.8297 36.5239 66.3516 36.5269C65.8735 36.5299 65.4872 36.9503 65.4901 37.4676C65.4931 37.9849 65.8824 38.4024 66.3605 38.3994ZM65.4576 34.9316C65.4798 34.9316 65.499 34.9495 65.499 34.9734V36.2317C65.499 36.2749 65.5479 36.2988 65.5834 36.2734C65.946 36.0051 66.3398 35.9186 66.7631 36.014C67.518 36.184 67.9088 36.7878 67.8718 37.5347C67.8067 38.8109 66.5737 39.3208 65.5597 38.6528C65.5227 38.629 65.4739 38.6543 65.4739 38.6991V38.875C65.4739 38.9182 65.4383 38.954 65.3939 38.954H64.9277C64.8803 38.954 64.8403 38.9137 64.8403 38.866V34.9734C64.8418 34.9495 64.8611 34.9316 64.8847 34.9316H65.4576Z" fill="#060010"/>
<path d="M80.4966 38.3994C80.9733 38.4009 81.3611 37.982 81.3626 37.4646C81.364 36.9473 80.9777 36.5284 80.4996 36.5269C80.023 36.5254 79.6352 36.9443 79.6337 37.4616C79.6322 37.979 80.0185 38.3979 80.4966 38.3994ZM82.0124 34.9734V38.866C82.0124 38.9152 81.9739 38.954 81.925 38.954H81.4588C81.4144 38.954 81.3788 38.9182 81.3788 38.875V38.6991C81.3788 38.6543 81.33 38.629 81.293 38.6528C80.279 39.3208 79.046 38.8109 78.9824 37.5347C78.9454 36.7878 79.3362 36.184 80.0911 36.014C80.5144 35.9186 80.9081 36.0051 81.2708 36.2734C81.3063 36.2988 81.3552 36.2749 81.3552 36.2317V34.9734C81.3552 34.951 81.3744 34.9316 81.3966 34.9316H81.9694C81.9931 34.9316 82.0124 34.951 82.0124 34.9734Z" fill="#060010"/>
<path d="M36.863 35.7277L36.8689 38.3099C36.8689 38.3397 36.8926 38.3635 36.9222 38.3635H37.8236C38.546 38.3606 39.1321 37.7821 39.1306 37.071V36.9606C39.1306 36.248 38.5415 35.671 37.8177 35.6725H36.9163C36.8881 35.674 36.863 35.6979 36.863 35.7277ZM36.1643 35.1477C36.1643 35.1105 36.1939 35.0792 36.2324 35.0792L37.8932 35.0762C38.9604 35.0747 39.8278 35.92 39.8293 36.9651V37.0605C39.8308 38.1056 38.9678 38.9539 37.8991 38.9554L36.2383 38.9584C36.2013 38.9584 36.1702 38.9286 36.1702 38.8898L36.1643 35.1477Z" fill="#060010"/>
<path d="M58.434 35.0781C58.5273 35.0781 58.6087 35.0811 58.6812 35.0871C58.7271 35.0901 58.7671 35.1214 58.7819 35.1661L59.67 37.9316C59.6803 37.9644 59.7277 37.9644 59.7381 37.9316L60.6366 35.1169C60.644 35.096 60.6632 35.0826 60.6839 35.0826H61.2938C61.3145 35.0826 61.3293 35.1035 61.3234 35.1229L60.1244 38.8754C60.1081 38.9246 60.0637 38.9574 60.0119 38.9574H59.4524C59.3976 38.9574 59.3488 38.9216 59.3325 38.8694L58.471 36.2052C58.4666 36.1903 58.4592 36.1784 58.4518 36.1754C58.4459 36.1754 58.4385 36.1724 58.4325 36.1724C58.4266 36.1724 58.4207 36.1739 58.4148 36.1754C58.4074 36.1784 58.3985 36.1903 58.394 36.2052L57.5281 38.8679C57.5118 38.9201 57.463 38.9559 57.4082 38.9559H56.8487C56.7984 38.9544 56.7525 38.9216 56.7362 38.8724L55.5446 35.1184C55.5372 35.0975 55.5521 35.0781 55.5743 35.0781H56.1841C56.2048 35.0781 56.2241 35.093 56.2315 35.1124L57.124 37.9287C57.1359 37.963 57.1818 37.963 57.1921 37.9302L58.0862 35.1661C58.0995 35.1199 58.1395 35.0886 58.1868 35.0856C58.2579 35.0811 58.3408 35.0781 58.434 35.0781Z" fill="#060010"/>
<path d="M70.0848 37.982C70.5126 38.307 71.0262 38.4248 71.6272 38.3354C72.2385 38.2429 72.2474 37.5959 71.6538 37.4438C70.7539 37.2127 69.7755 37.0473 69.8924 36.105C70.0508 34.8289 71.7471 34.96 72.5834 35.379C72.6056 35.3894 72.616 35.4163 72.6086 35.4416L72.4561 35.9172C72.4458 35.95 72.4088 35.9634 72.3806 35.947C71.9869 35.7189 70.5881 35.3685 70.5777 36.1796C70.5748 36.3719 70.7169 36.5448 70.9211 36.5985C71.8552 36.8385 73.2317 37.0234 72.6574 38.3428C72.5671 38.5501 72.354 38.7141 72.015 38.8318C71.3356 39.0689 70.6221 38.9839 69.8717 38.5769C69.8391 38.559 69.8228 38.5202 69.8347 38.4845L69.9857 38.0133C69.999 37.9716 70.0493 37.9552 70.0848 37.982Z" fill="#060010"/>
<path d="M47.3088 35.4913C47.3088 35.4719 47.3236 35.457 47.3428 35.457H47.9275C47.9482 35.457 47.966 35.4749 47.966 35.4958V36.0534C47.966 36.0921 47.9971 36.1234 48.0355 36.1234H48.7002C48.7268 36.1234 48.749 36.1458 48.749 36.1726V36.5856C48.749 36.6125 48.7268 36.6348 48.7002 36.6348H48.0622C48.0119 36.6348 47.9719 36.6751 47.9704 36.7258C47.9704 36.7958 47.966 37.1536 47.9645 37.7992C47.963 38.3851 48.1984 38.5461 48.709 38.3106C48.7312 38.3016 48.7579 38.312 48.7653 38.3359L48.897 38.7459C48.9044 38.7668 48.8926 38.7906 48.8719 38.8011C48.0977 39.1693 47.3014 38.8905 47.3058 37.9483C47.3102 37.2252 47.3102 36.8227 47.3088 36.7437C47.3088 36.684 47.2599 36.6378 47.2007 36.6378H46.8825C46.8484 36.6378 46.8218 36.6095 46.8218 36.5752V36.2054C46.8218 36.1592 46.8588 36.122 46.9047 36.122H47.2214C47.2703 36.122 47.3088 36.0832 47.3088 36.034V35.4913Z" fill="#060010"/>
<path d="M73.51 35.4913C73.51 35.4719 73.5248 35.457 73.544 35.457H74.1272C74.1494 35.457 74.1657 35.4749 74.1657 35.4958V36.0534C74.1657 36.0921 74.1968 36.1234 74.2353 36.1234H74.8999C74.9265 36.1234 74.9487 36.1458 74.9487 36.1726V36.5856C74.9487 36.6125 74.9265 36.6348 74.8999 36.6348H74.2619C74.2116 36.6348 74.1716 36.6751 74.1701 36.7258C74.1686 36.7958 74.1657 37.1536 74.1642 37.7992C74.1627 38.3851 74.3981 38.5461 74.9087 38.3106C74.931 38.3001 74.9561 38.312 74.965 38.3359L75.0967 38.7459C75.1027 38.7668 75.0923 38.7906 75.0716 38.8011C74.2974 39.1693 73.5011 38.8905 73.5055 37.9483C73.51 37.2237 73.5114 36.8227 73.5085 36.7437C73.507 36.684 73.4596 36.6378 73.4004 36.6378H73.0822C73.0496 36.6378 73.0215 36.6095 73.0215 36.5752V36.2054C73.0215 36.1592 73.0585 36.122 73.1044 36.122H73.4211C73.47 36.122 73.5085 36.0817 73.5085 36.034V35.4913H73.51Z" fill="#060010"/>
<path d="M41.0298 35.9746H40.4673C40.4403 35.9746 40.4185 35.9966 40.4185 36.0238V38.9042C40.4185 38.9313 40.4403 38.9534 40.4673 38.9534H41.0298C41.0568 38.9534 41.0786 38.9313 41.0786 38.9042V36.0238C41.0786 35.9966 41.0568 35.9746 41.0298 35.9746Z" fill="#060010"/>
<path d="M44.2152 37.3915C44.2152 36.9099 43.8289 36.5208 43.3508 36.5208C42.8727 36.5208 42.4864 36.9099 42.4864 37.3915C42.4864 37.873 42.8727 38.2621 43.3508 38.2621C43.8289 38.2621 44.2152 37.873 44.2152 37.3915ZM44.2315 36.236C44.236 36.2018 44.2315 36.1555 44.2182 36.0959C44.2034 36.0333 44.2508 35.9722 44.3159 35.9722H44.7481C44.8073 35.9722 44.8562 36.0214 44.8562 36.081C44.8636 37.2647 44.8606 38.122 44.8473 38.6527C44.8103 40.242 43.0044 40.2152 42.0186 39.6412C41.9861 39.6218 41.9742 39.5801 41.9935 39.5473L42.2155 39.1596C42.2332 39.1298 42.2703 39.1194 42.2984 39.1373C42.9808 39.5353 44.2226 39.7142 44.2064 38.5484C44.2064 38.5111 44.1634 38.4888 44.1324 38.5111C43.1169 39.2342 41.7226 38.5752 41.838 37.2513C41.9402 36.075 43.2679 35.6099 44.1309 36.2778C44.1694 36.3076 44.2256 36.2838 44.2315 36.236Z" fill="#060010"/>
<path d="M46.3601 35.9727H45.7947C45.7685 35.9727 45.7473 35.994 45.7473 36.0204V38.9037C45.7473 38.9301 45.7685 38.9514 45.7947 38.9514H46.3601C46.3863 38.9514 46.4075 38.9301 46.4075 38.9037V36.0204C46.4075 35.994 46.3863 35.9727 46.3601 35.9727Z" fill="#060010"/>
<path d="M51.1308 37.7585C50.9117 37.7347 50.6231 37.7496 50.2634 37.8048C50.1154 37.8271 50.0147 37.9762 50.0384 38.1357C50.0577 38.2595 50.1272 38.3474 50.2486 38.3981C50.6394 38.5621 50.9813 38.4742 51.2759 38.1342C51.3958 37.9956 51.3114 37.7794 51.1308 37.7585ZM51.2418 38.6948C50.8599 38.9736 50.4322 39.0317 49.96 38.8707C49.3486 38.662 49.1488 37.9345 49.6995 37.5289C50.0695 37.2576 50.632 37.3172 51.2359 37.3083C51.2892 37.3068 51.3292 37.2576 51.3203 37.2039C51.2152 36.618 50.8525 36.4138 50.2353 36.5882C50.0295 36.6463 49.8741 36.7239 49.769 36.8238C49.7305 36.861 49.6669 36.8431 49.6506 36.7925L49.5085 36.3512C49.4952 36.3109 49.5144 36.2677 49.5514 36.2498C50.4958 35.7966 51.899 35.7623 51.9509 37.1726C51.9701 37.7168 51.9731 38.2878 51.9597 38.8886C51.9583 38.9244 51.9301 38.9527 51.8946 38.9527H51.3987C51.3632 38.9527 51.3336 38.9244 51.3336 38.8886V38.7425C51.3336 38.6948 51.2803 38.6665 51.2418 38.6948Z" fill="#060010"/>
<path d="M62.065 37.317L63.5778 37.3081C63.5911 37.3081 63.6015 37.2977 63.6015 37.2842V37.2753C63.6 36.8459 63.2507 36.4985 62.8214 36.5015H62.8155C62.3862 36.5045 62.0399 36.8534 62.0413 37.2842V37.2932C62.0413 37.3066 62.0532 37.317 62.065 37.317ZM64.1506 37.7613H62.1198C62.0399 37.7613 61.9954 37.8537 62.0443 37.9164C62.475 38.4799 63.0212 38.5559 63.6814 38.1445C63.6992 38.1325 63.7243 38.1355 63.7391 38.1504L64.0441 38.4576C64.0618 38.4754 64.0603 38.5053 64.0411 38.5217C63.1885 39.2656 61.5795 39.0271 61.3841 37.8001C61.2968 37.2529 61.4256 36.7878 61.7719 36.4061C62.1997 35.935 63.0612 35.8441 63.5985 36.1974C64.0455 36.4911 64.2616 36.9816 64.2483 37.6659C64.2468 37.7196 64.2039 37.7613 64.1506 37.7613Z" fill="#060010"/>
<path d="M77.6753 38.6443C76.8538 39.3167 75.6696 38.8799 75.6504 37.7244C75.646 37.38 75.6445 36.812 75.6489 36.0189C75.6489 35.9935 75.6696 35.9741 75.6948 35.9741H76.2573C76.2854 35.9741 76.3076 35.9965 76.3076 36.0248V37.7244C76.3076 38.1016 76.6333 38.3953 77.0063 38.3536L77.0847 38.3461C77.4459 38.3059 77.7183 37.9987 77.7183 37.6335V36.0174C77.7183 35.992 77.7375 35.9727 77.7612 35.9727H78.3385C78.3607 35.9727 78.3784 35.992 78.3784 36.0144V38.8724C78.3784 38.9171 78.3429 38.9529 78.3 38.9529H77.8367C77.7937 38.9529 77.7582 38.9171 77.7582 38.8724V38.6831C77.7582 38.6398 77.7094 38.6175 77.6753 38.6443Z" fill="#060010"/>
<path d="M83.5102 35.9746H82.9507C82.9229 35.9746 82.9004 35.9973 82.9004 36.0253V38.9027C82.9004 38.9307 82.9229 38.9534 82.9507 38.9534H83.5102C83.538 38.9534 83.5606 38.9307 83.5606 38.9027V36.0253C83.5606 35.9973 83.538 35.9746 83.5102 35.9746Z" fill="#060010"/>
<path d="M85.8238 38.399C86.3004 38.399 86.6868 37.9801 86.6868 37.4628C86.6868 36.9454 86.3004 36.5265 85.8238 36.5265C85.3472 36.5265 84.9608 36.9454 84.9608 37.4628C84.9608 37.9801 85.3472 38.399 85.8238 38.399ZM87.3543 37.4762C87.3469 38.3051 86.6557 38.97 85.8105 38.9626C84.9653 38.9551 84.2859 38.2783 84.2933 37.4493C84.3007 36.6204 84.9919 35.9555 85.8371 35.963C86.6823 35.9704 87.3617 36.6473 87.3543 37.4762Z" fill="#060010"/>
</g>
<defs>
<clipPath id="clip0_110_1307">
<rect width="74" height="24" fill="white" transform="translate(24 16)"/>
</clipPath>
</defs>
</svg>
