<svg width="64" height="64" viewBox="0 0 64 64" fill="none" xmlns="http://www.w3.org/2000/svg">
<path opacity="0.57" d="M32 64C49.6731 64 64 49.6731 64 32C64 14.3269 49.6731 0 32 0C14.3269 0 0 14.3269 0 32C0 49.6731 14.3269 64 32 64Z" fill="url(#paint0_radial_110_1179)"/>
<path d="M31.9997 60.8704C48.3765 60.8704 61.6526 47.5943 61.6526 31.2174C61.6526 14.8405 48.3765 1.56445 31.9997 1.56445C15.6228 1.56445 2.34668 14.8405 2.34668 31.2174C2.34668 47.5943 15.6228 60.8704 31.9997 60.8704Z" fill="url(#paint1_radial_110_1179)"/>
<path opacity="0.68" d="M54.0435 19.6903C54.0435 27.4419 44.1742 33.7257 31.9998 33.7257C19.8254 33.7257 9.95605 27.4419 9.95605 19.6903C9.95605 11.9388 19.8254 4.95117 31.9998 4.95117C44.1742 4.95117 54.0435 11.9388 54.0435 19.6903Z" fill="url(#paint2_linear_110_1179)"/>
<path d="M27.3286 24.7555C27.6031 24.763 27.9076 24.778 28.1971 25.42C28.3891 25.8475 28.7116 26.635 28.9756 27.277C29.1811 27.7765 29.3491 28.1875 29.3911 28.2715C29.4871 28.4635 29.5471 28.684 29.4211 28.9435L29.3791 29.0305C29.2938 29.2324 29.1774 29.4197 29.0341 29.5855L28.8196 29.8405C28.6921 29.9965 28.5646 30.1495 28.4566 30.2575C28.2631 30.4495 28.0636 30.6565 28.2856 31.0405C28.5076 31.4245 29.2876 32.6875 30.4381 33.706C31.2796 34.465 32.2451 35.0738 33.2926 35.506C33.3976 35.551 33.4826 35.589 33.5476 35.62C33.9331 35.812 34.1626 35.782 34.3846 35.524C34.6081 35.2645 35.3491 34.4005 35.6101 34.0165C35.8621 33.6325 36.1201 33.6925 36.4771 33.8245C36.8341 33.958 38.7331 34.8895 39.1186 35.08L39.3331 35.185C39.6016 35.3125 39.7831 35.401 39.8611 35.53C39.9571 35.6935 39.9571 36.46 39.6391 37.363C39.3121 38.263 37.7386 39.127 37.0261 39.193L36.8236 39.217C36.1696 39.295 35.3416 39.397 32.3896 38.2345C28.7506 36.8035 26.3491 33.2545 25.8646 32.536L25.7851 32.422L25.7761 32.41C25.5556 32.1145 24.2041 30.307 24.2041 28.441C24.2041 26.656 25.0846 25.726 25.4851 25.303L25.5556 25.228C25.6852 25.0816 25.8436 24.9634 26.0209 24.8808C26.1982 24.7983 26.3906 24.7531 26.5861 24.748C26.8456 24.748 27.1066 24.748 27.3286 24.7555Z" fill="#726C73"/>
<path fill-rule="evenodd" clip-rule="evenodd" d="M17.276 45.9966C17.2477 46.0983 17.2468 46.2056 17.2732 46.3078C17.2997 46.4099 17.3527 46.5033 17.4268 46.5785C17.5009 46.6536 17.5935 46.7079 17.6953 46.7359C17.797 46.7638 17.9044 46.7644 18.0065 46.7376L24.917 44.9316C27.1095 46.1191 29.5635 46.7414 32.057 46.7421H32.063C40.292 46.7421 47 40.0731 47 31.8741C47.005 29.9189 46.6212 27.9822 45.8708 26.1768C45.1204 24.3713 44.0184 22.7332 42.629 21.3576C41.2419 19.9707 39.5943 18.8717 37.781 18.1239C35.9677 17.3761 34.0244 16.9941 32.063 17.0001C23.834 17.0001 17.126 23.6691 17.126 31.8666C17.126 34.4751 17.813 37.0371 19.121 39.2976L17.276 45.9966ZM21.2915 39.8946C21.3708 39.6067 21.392 39.3059 21.3539 39.0098C21.3158 38.7136 21.2191 38.428 21.0695 38.1696C19.9612 36.2538 19.3771 34.0798 19.376 31.8666C19.376 24.9216 25.0655 19.2501 32.063 19.2501C35.468 19.2501 38.645 20.5656 41.042 22.9521C42.2213 24.1186 43.1566 25.5083 43.7932 27.0402C44.4299 28.572 44.7551 30.2152 44.75 31.8741C44.75 38.8191 39.0605 44.4921 32.063 44.4921H32.0555C29.937 44.491 27.8522 43.962 25.9895 42.9531C25.4874 42.6813 24.9008 42.6105 24.3485 42.7551L20.2055 43.8366L21.2915 39.8946Z" fill="#726C73"/>
<defs>
<radialGradient id="paint0_radial_110_1179" cx="0" cy="0" r="1" gradientUnits="userSpaceOnUse" gradientTransform="translate(32 32) scale(32)">
<stop offset="0.9028"/>
<stop offset="0.9048" stop-color="#0F0F0F"/>
<stop offset="0.9118" stop-color="#414141"/>
<stop offset="0.9194" stop-color="#6E6E6E"/>
<stop offset="0.9273" stop-color="#959595"/>
<stop offset="0.9357" stop-color="#B6B6B6"/>
<stop offset="0.9447" stop-color="#D1D1D1"/>
<stop offset="0.9545" stop-color="#E5E5E5"/>
<stop offset="0.9655" stop-color="#F4F4F4"/>
<stop offset="0.9787" stop-color="#FCFCFC"/>
<stop offset="1" stop-color="white"/>
</radialGradient>
<radialGradient id="paint1_radial_110_1179" cx="0" cy="0" r="1" gradientUnits="userSpaceOnUse" gradientTransform="translate(31.9997 31.2174) scale(29.653)">
<stop stop-color="#FFF9F4"/>
<stop offset="0.8492" stop-color="#E6E6E6"/>
<stop offset="0.8931" stop-color="#E2E2E2"/>
<stop offset="0.9338" stop-color="#D7D7D7"/>
<stop offset="0.9731" stop-color="#C4C4C4"/>
<stop offset="1" stop-color="#B3B3B3"/>
</radialGradient>
<linearGradient id="paint2_linear_110_1179" x1="31.9998" y1="4.95117" x2="31.9998" y2="33.7257" gradientUnits="userSpaceOnUse">
<stop stop-color="#FFF9F4"/>
<stop offset="1" stop-color="#FFF9F4"/>
</linearGradient>
</defs>
</svg>
