<svg width="64" height="64" viewBox="0 0 64 64" fill="none" xmlns="http://www.w3.org/2000/svg">
<path opacity="0.57" d="M32 64C49.6731 64 64 49.6731 64 32C64 14.3269 49.6731 0 32 0C14.3269 0 0 14.3269 0 32C0 49.6731 14.3269 64 32 64Z" fill="url(#paint0_radial_110_1194)"/>
<path d="M31.9997 60.8704C48.3765 60.8704 61.6526 47.5943 61.6526 31.2174C61.6526 14.8405 48.3765 1.56445 31.9997 1.56445C15.6228 1.56445 2.34668 14.8405 2.34668 31.2174C2.34668 47.5943 15.6228 60.8704 31.9997 60.8704Z" fill="url(#paint1_radial_110_1194)"/>
<path opacity="0.68" d="M54.0435 19.6903C54.0435 27.4419 44.1742 33.7257 31.9998 33.7257C19.8254 33.7257 9.95605 27.4419 9.95605 19.6903C9.95605 11.9388 19.8254 4.95117 31.9998 4.95117C44.1742 4.95117 54.0435 11.9388 54.0435 19.6903Z" fill="url(#paint2_linear_110_1194)"/>
<path d="M44.3748 17.375H19.6248C19.028 17.375 18.4557 17.6121 18.0338 18.034C17.6118 18.456 17.3748 19.0283 17.3748 19.625V44.375C17.3748 44.9717 17.6118 45.544 18.0338 45.966C18.4557 46.3879 19.028 46.625 19.6248 46.625H44.3748C44.9715 46.625 45.5438 46.3879 45.9657 45.966C46.3877 45.544 46.6248 44.9717 46.6248 44.375V19.625C46.6248 19.0283 46.3877 18.456 45.9657 18.034C45.5438 17.6121 44.9715 17.375 44.3748 17.375ZM44.3748 44.375H19.6248V19.625H44.3748V44.375ZM27.4998 29.75V38.75C27.4998 39.0484 27.3812 39.3345 27.1703 39.5455C26.9593 39.7565 26.6731 39.875 26.3748 39.875C26.0764 39.875 25.7902 39.7565 25.5793 39.5455C25.3683 39.3345 25.2498 39.0484 25.2498 38.75V29.75C25.2498 29.4516 25.3683 29.1655 25.5793 28.9545C25.7902 28.7435 26.0764 28.625 26.3748 28.625C26.6731 28.625 26.9593 28.7435 27.1703 28.9545C27.3812 29.1655 27.4998 29.4516 27.4998 29.75ZM39.8748 33.6875V38.75C39.8748 39.0484 39.7562 39.3345 39.5453 39.5455C39.3343 39.7565 39.0481 39.875 38.7498 39.875C38.4514 39.875 38.1652 39.7565 37.9543 39.5455C37.7433 39.3345 37.6248 39.0484 37.6248 38.75V33.6875C37.6248 32.9416 37.3284 32.2262 36.801 31.6988C36.2735 31.1713 35.5582 30.875 34.8123 30.875C34.0663 30.875 33.351 31.1713 32.8235 31.6988C32.2961 32.2262 31.9998 32.9416 31.9998 33.6875V38.75C31.9998 39.0484 31.8812 39.3345 31.6703 39.5455C31.4593 39.7565 31.1731 39.875 30.8748 39.875C30.5764 39.875 30.2902 39.7565 30.0793 39.5455C29.8683 39.3345 29.7498 39.0484 29.7498 38.75V29.75C29.7512 29.4744 29.8536 29.209 30.0378 29.004C30.2219 28.7989 30.4749 28.6686 30.7487 28.6378C31.0225 28.6069 31.2982 28.6776 31.5233 28.8365C31.7485 28.9954 31.9075 29.2314 31.9702 29.4997C32.7313 28.9834 33.6186 28.6842 34.5368 28.6342C35.4551 28.5841 36.3697 28.7852 37.1823 29.2157C37.9949 29.6462 38.6749 30.29 39.1493 31.0778C39.6237 31.8657 39.8745 32.7679 39.8748 33.6875ZM28.0623 25.8125C28.0623 26.1463 27.9633 26.4725 27.7779 26.75C27.5924 27.0275 27.3289 27.2438 27.0205 27.3715C26.7122 27.4993 26.3729 27.5327 26.0455 27.4676C25.7182 27.4025 25.4175 27.2417 25.1815 27.0057C24.9455 26.7697 24.7848 26.4691 24.7197 26.1417C24.6546 25.8144 24.688 25.4751 24.8157 25.1667C24.9434 24.8584 25.1597 24.5948 25.4372 24.4094C25.7147 24.224 26.041 24.125 26.3748 24.125C26.8223 24.125 27.2515 24.3028 27.568 24.6193C27.8845 24.9357 28.0623 25.3649 28.0623 25.8125Z" fill="#726C73"/>
<defs>
<radialGradient id="paint0_radial_110_1194" cx="0" cy="0" r="1" gradientUnits="userSpaceOnUse" gradientTransform="translate(32 32) scale(32)">
<stop offset="0.9028"/>
<stop offset="0.9048" stop-color="#0F0F0F"/>
<stop offset="0.9118" stop-color="#414141"/>
<stop offset="0.9194" stop-color="#6E6E6E"/>
<stop offset="0.9273" stop-color="#959595"/>
<stop offset="0.9357" stop-color="#B6B6B6"/>
<stop offset="0.9447" stop-color="#D1D1D1"/>
<stop offset="0.9545" stop-color="#E5E5E5"/>
<stop offset="0.9655" stop-color="#F4F4F4"/>
<stop offset="0.9787" stop-color="#FCFCFC"/>
<stop offset="1" stop-color="white"/>
</radialGradient>
<radialGradient id="paint1_radial_110_1194" cx="0" cy="0" r="1" gradientUnits="userSpaceOnUse" gradientTransform="translate(31.9997 31.2174) scale(29.653)">
<stop stop-color="#FFF9F4"/>
<stop offset="0.8492" stop-color="#E6E6E6"/>
<stop offset="0.8931" stop-color="#E2E2E2"/>
<stop offset="0.9338" stop-color="#D7D7D7"/>
<stop offset="0.9731" stop-color="#C4C4C4"/>
<stop offset="1" stop-color="#B3B3B3"/>
</radialGradient>
<linearGradient id="paint2_linear_110_1194" x1="31.9998" y1="4.95117" x2="31.9998" y2="33.7257" gradientUnits="userSpaceOnUse">
<stop stop-color="#FFF9F4"/>
<stop offset="1" stop-color="#FFF9F4"/>
</linearGradient>
</defs>
</svg>
