<svg width="64" height="64" viewBox="0 0 64 64" fill="none" xmlns="http://www.w3.org/2000/svg">
<path opacity="0.57" d="M32 64C49.6731 64 64 49.6731 64 32C64 14.3269 49.6731 0 32 0C14.3269 0 0 14.3269 0 32C0 49.6731 14.3269 64 32 64Z" fill="url(#paint0_radial_110_1186)"/>
<path d="M31.9997 60.8704C48.3765 60.8704 61.6526 47.5943 61.6526 31.2174C61.6526 14.8405 48.3765 1.56445 31.9997 1.56445C15.6228 1.56445 2.34668 14.8405 2.34668 31.2174C2.34668 47.5943 15.6228 60.8704 31.9997 60.8704Z" fill="url(#paint1_radial_110_1186)"/>
<path opacity="0.68" d="M54.0435 19.6903C54.0435 27.4419 44.1742 33.7257 31.9998 33.7257C19.8254 33.7257 9.95605 27.4419 9.95605 19.6903C9.95605 11.9388 19.8254 4.95117 31.9998 4.95117C44.1742 4.95117 54.0435 11.9388 54.0435 19.6903Z" fill="url(#paint2_linear_110_1186)"/>
<path d="M38.0002 24.5C38.0002 24.1022 38.1583 23.7206 38.4396 23.4393C38.7209 23.158 39.1024 23 39.5002 23C39.8981 23 40.2796 23.158 40.5609 23.4393C40.8422 23.7206 41.0002 24.1022 41.0002 24.5C41.0002 24.8978 40.8422 25.2794 40.5609 25.5607C40.2796 25.842 39.8981 26 39.5002 26C39.1024 26 38.7209 25.842 38.4396 25.5607C38.1583 25.2794 38.0002 24.8978 38.0002 24.5Z" fill="#FFF9F4"/>
<path fill-rule="evenodd" clip-rule="evenodd" d="M32.0002 24.875C30.1106 24.875 28.2983 25.6257 26.9621 26.9619C25.6259 28.2981 24.8752 30.1103 24.8752 32C24.8752 33.8897 25.6259 35.7019 26.9621 37.0381C28.2983 38.3743 30.1106 39.125 32.0002 39.125C33.8899 39.125 35.7022 38.3743 37.0384 37.0381C38.3746 35.7019 39.1252 33.8897 39.1252 32C39.1252 30.1103 38.3746 28.2981 37.0384 26.9619C35.7022 25.6257 33.8899 24.875 32.0002 24.875ZM27.1252 32C27.1252 30.7071 27.6389 29.4671 28.5531 28.5529C29.4673 27.6386 30.7073 27.125 32.0002 27.125C33.2932 27.125 34.5331 27.6386 35.4474 28.5529C36.3616 29.4671 36.8752 30.7071 36.8752 32C36.8752 33.2929 36.3616 34.5329 35.4474 35.4471C34.5331 36.3614 33.2932 36.875 32.0002 36.875C30.7073 36.875 29.4673 36.3614 28.5531 35.4471C27.6389 34.5329 27.1252 33.2929 27.1252 32Z" fill="#726C73"/>
<path fill-rule="evenodd" clip-rule="evenodd" d="M39.8873 18.2485C34.6453 17.6672 29.3552 17.6672 24.1133 18.2485C21.0953 18.586 18.6578 20.9635 18.3038 23.9965C17.6829 29.3135 17.6829 34.6846 18.3038 40.0015C18.6578 43.0345 21.0938 45.412 24.1133 45.7495C29.3553 46.3297 34.6453 46.3297 39.8873 45.7495C42.9053 45.412 45.3428 43.0345 45.6968 40.0015C46.3176 34.6846 46.3176 29.3135 45.6968 23.9965C45.3428 20.9635 42.9068 18.586 39.8873 18.2485ZM24.3623 20.4835C29.4387 19.9206 34.5618 19.9206 39.6383 20.4835C41.6333 20.7085 43.2308 22.282 43.4633 24.259C44.065 29.4015 44.065 34.5966 43.4633 39.739C43.343 40.7066 42.9001 41.6054 42.206 42.2901C41.512 42.9749 40.6074 43.4058 39.6383 43.513C34.5618 44.076 29.4387 44.076 24.3623 43.513C23.3932 43.4058 22.4885 42.9749 21.7945 42.2901C21.1005 41.6054 20.6575 40.7066 20.5373 39.739C19.9355 34.5966 19.9355 29.4015 20.5373 24.259C20.6575 23.2915 21.1005 22.3927 21.7945 21.7079C22.4885 21.0231 23.3932 20.5908 24.3623 20.4835Z" fill="#726C73"/>
<defs>
<radialGradient id="paint0_radial_110_1186" cx="0" cy="0" r="1" gradientUnits="userSpaceOnUse" gradientTransform="translate(32 32) scale(32)">
<stop offset="0.9028"/>
<stop offset="0.9048" stop-color="#0F0F0F"/>
<stop offset="0.9118" stop-color="#414141"/>
<stop offset="0.9194" stop-color="#6E6E6E"/>
<stop offset="0.9273" stop-color="#959595"/>
<stop offset="0.9357" stop-color="#B6B6B6"/>
<stop offset="0.9447" stop-color="#D1D1D1"/>
<stop offset="0.9545" stop-color="#E5E5E5"/>
<stop offset="0.9655" stop-color="#F4F4F4"/>
<stop offset="0.9787" stop-color="#FCFCFC"/>
<stop offset="1" stop-color="white"/>
</radialGradient>
<radialGradient id="paint1_radial_110_1186" cx="0" cy="0" r="1" gradientUnits="userSpaceOnUse" gradientTransform="translate(31.9997 31.2174) scale(29.653)">
<stop stop-color="#FFF9F4"/>
<stop offset="0.8492" stop-color="#E6E6E6"/>
<stop offset="0.8931" stop-color="#E2E2E2"/>
<stop offset="0.9338" stop-color="#D7D7D7"/>
<stop offset="0.9731" stop-color="#C4C4C4"/>
<stop offset="1" stop-color="#B3B3B3"/>
</radialGradient>
<linearGradient id="paint2_linear_110_1186" x1="31.9998" y1="4.95117" x2="31.9998" y2="33.7257" gradientUnits="userSpaceOnUse">
<stop stop-color="#FFF9F4"/>
<stop offset="1" stop-color="#FFF9F4"/>
</linearGradient>
</defs>
</svg>
