<svg width="148" height="48" viewBox="0 0 148 48" fill="none" xmlns="http://www.w3.org/2000/svg">
<g clip-path="url(#clip0_110_1143)">
<path d="M17.5849 5.62654C18.8313 5.62356 19.6395 5.94856 19.9592 7.21878C20.649 9.94111 21.9249 15.028 23.79 22.4853C23.8018 22.53 23.8581 22.5479 23.8936 22.5181C23.8995 22.5151 23.9084 22.5121 23.9202 22.5121C23.9262 22.5091 23.938 22.4972 23.9439 22.4763L30.2822 0.161014C30.3088 0.0655982 30.3976 0 30.4953 0L35.0396 0.00894521C35.1195 0.00894521 35.1787 0.0864704 35.155 0.163996C35.1491 0.187849 32.3989 9.24935 26.9043 27.3485C26.5402 28.5471 25.6787 29.1614 24.3199 29.1882C22.6561 29.224 21.3151 29.1524 20.8414 27.3545C20.6845 26.7581 19.6395 22.5509 17.7034 14.7357C17.6738 14.6165 17.6353 14.5568 17.5879 14.5568C17.5435 14.5568 17.505 14.6165 17.4754 14.7357C15.5482 22.5539 14.5091 26.7611 14.3522 27.3574C13.8815 29.1584 12.5404 29.23 10.8766 29.1972C9.51782 29.1703 8.65634 28.5591 8.28924 27.3604C2.77399 9.26724 0.0119258 0.208722 0.00600502 0.184868C-0.0176783 0.107343 0.04153 0.0298174 0.121461 0.0298174L4.6657 0.0149087C4.76339 0.0149087 4.84924 0.0805069 4.87885 0.175922L11.2437 22.4853C11.2526 22.5032 11.2615 22.5181 11.2674 22.5211C11.2793 22.5211 11.2881 22.5211 11.2941 22.527C11.3296 22.5568 11.3858 22.5389 11.3977 22.4942C13.2539 15.0339 14.5239 9.94409 15.2107 7.22177C15.5275 5.95155 16.3357 5.62654 17.5849 5.62654Z" fill="#FFF9F4"/>
<path d="M115.927 0.158203H119.598C119.672 0.158203 119.734 0.22082 119.734 0.295363C119.74 11.3606 119.74 17.1809 119.731 17.7564C119.71 19.3099 119.826 20.4072 120.074 21.0542C121.025 23.4992 123.286 25.1541 125.912 25.2346C126.01 25.2376 126.09 25.3211 126.09 25.4195V29.1526C126.09 29.2629 125.995 29.3524 125.883 29.3434C121.176 29.0005 117.946 26.633 116.19 22.2469C115.888 21.4896 115.734 20.1508 115.731 19.0833C115.723 10.7553 115.723 4.51154 115.737 0.352016C115.737 0.244673 115.823 0.158203 115.927 0.158203Z" fill="#FFF9F4"/>
<path d="M79.1704 18.8332C79.1704 20.509 78.7974 22.0774 78.0573 23.5384C78.0218 23.607 78.0396 23.6905 78.0958 23.7382C82.2197 27.2745 88.5046 24.1854 88.5017 18.8302C88.5017 13.475 82.2108 10.3919 78.0899 13.9313C78.0336 13.9819 78.0188 14.0624 78.0514 14.131C78.7974 15.5921 79.1675 17.1605 79.1704 18.8332ZM75.1354 18.8302C75.1354 15.2939 72.2904 12.4285 68.7794 12.4285C65.2683 12.4285 62.4234 15.2939 62.4234 18.8302C62.4234 22.3666 65.2683 25.232 68.7794 25.232C72.2904 25.232 75.1354 22.3666 75.1354 18.8302ZM62.5921 10.4247C66.5443 7.59506 71.6865 7.66364 75.3959 10.7646C75.4433 10.8034 75.5143 10.8034 75.5617 10.7617C78.9899 7.82465 84.0966 7.59208 87.8178 10.055C89.6178 11.2477 90.9559 12.8996 91.8321 15.0106C92.4834 16.582 92.6877 18.3323 92.4479 20.2615C91.9002 24.6506 88.5461 28.1154 84.2594 29.1053C83.913 29.1858 82.9923 29.2156 81.4973 29.2007C79.3214 29.1739 77.187 28.3241 75.6239 26.9436C75.5469 26.875 75.4344 26.875 75.3545 26.9406C73.9838 28.0707 72.4177 28.8012 70.6563 29.1381C70.4165 29.1828 69.6113 29.2067 68.2406 29.2037C63.8829 29.1948 60.1261 25.9626 58.8561 21.973C58.5038 20.8668 58.3498 19.0807 58.3883 16.6148C58.4061 15.5593 58.4061 10.1534 58.3913 0.400128C58.3913 0.28384 58.4831 0.191406 58.5985 0.191406H62.2576C62.3464 0.191406 62.4175 0.262968 62.4175 0.35242V10.3353C62.4175 10.4247 62.5181 10.4784 62.5921 10.4247Z" fill="#FFF9F4"/>
<path d="M52.808 16.6019C51.6741 14.0972 49.8564 12.7137 47.3549 12.4543C42.4524 11.9474 38.5802 17.6305 41.36 21.957C42.5768 23.8475 44.3501 24.9447 46.6799 25.2489C46.7539 25.2578 46.8102 25.3234 46.8102 25.398V29.1579C46.8102 29.2325 46.748 29.2951 46.674 29.2891C42.3636 29.0476 38.5773 26.3462 37.0526 22.3149C34.5955 15.8206 39.4743 8.65553 46.3128 8.39015C49.6492 8.26194 52.4379 9.46059 54.6789 11.9831C55.9815 13.4531 56.8016 15.3436 57.1391 17.6544C57.1894 17.9973 57.2012 18.9872 57.1687 20.6302C57.1657 20.7256 57.0887 20.8001 56.994 20.8001H46.8368C46.7362 20.8001 46.6562 20.7196 46.6562 20.6182V16.9179C46.6562 16.8195 46.7332 16.742 46.8279 16.742H52.7192C52.7902 16.742 52.8376 16.6674 52.808 16.6019Z" fill="#FFF9F4"/>
<path d="M104.112 8.48828C108.854 8.48828 112.724 11.5684 114.121 16.0529C114.435 17.0638 114.565 18.7514 114.512 21.1219C114.494 21.927 114.494 24.5926 114.512 29.1219C114.512 29.2292 114.426 29.3157 114.319 29.3157H110.642C110.545 29.3157 110.465 29.2352 110.462 29.1368C110.441 27.9322 110.441 24.6016 110.462 19.145C110.48 15.5103 107.774 12.5494 104.109 12.5494C100.444 12.5494 97.7351 15.5103 97.7528 19.145C97.7765 24.6016 97.7795 27.9322 97.7587 29.1368C97.7558 29.2352 97.6759 29.3157 97.5782 29.3157H93.9013C93.7948 29.3157 93.7089 29.2292 93.7089 29.1219C93.7237 24.5926 93.7237 21.927 93.7059 21.1219C93.6527 18.7514 93.7829 17.0638 94.0967 16.0529C95.494 11.5684 99.3663 8.48828 104.109 8.48828H104.112Z" fill="#FFF9F4"/>
<path d="M147.994 8.69402C147.973 11.0347 147.976 15.874 148 23.2121C148.012 26.7276 147.917 28.8834 147.713 29.6735C146.564 34.1282 142.488 37.5692 137.789 37.5244C137.689 37.5244 137.609 37.4439 137.609 37.3425V33.6899C137.609 33.5945 137.683 33.517 137.778 33.511C140.294 33.3351 142.141 32.1543 143.317 29.9657C143.79 29.0802 143.852 28.284 143.956 27.2911C143.962 27.2374 143.903 27.2046 143.858 27.2345C137.89 31.4447 129.85 28.9072 127.674 21.8107C127.384 20.8655 127.242 19.6728 127.25 18.2326C127.268 14.6992 127.268 11.5147 127.25 8.67613C127.25 8.57475 127.33 8.49126 127.431 8.49126H131.132C131.211 8.49126 131.274 8.55388 131.274 8.63141C131.294 13.1607 131.294 16.1245 131.274 17.5289C131.232 20.296 131.694 22.2967 133.787 23.9068C135.11 24.9236 136.593 25.356 138.236 25.2039C140.676 24.9803 142.964 23.1823 143.707 20.7999C143.897 20.1946 143.983 19.1838 143.962 17.7674C143.962 17.7168 143.962 14.6903 143.959 8.68806C143.959 8.57773 144.048 8.48828 144.157 8.48828H147.793C147.905 8.48828 147.994 8.58072 147.994 8.69402Z" fill="#FFF9F4"/>
<path d="M34.2935 38.3846C34.2935 38.8438 33.9235 39.2165 33.4676 39.2165C33.0117 39.2165 32.6416 38.8438 32.6416 38.3846C32.6416 37.9254 33.0117 37.5527 33.4676 37.5527C33.9235 37.5527 34.2935 37.9254 34.2935 38.3846Z" fill="#FFF9F4"/>
<path d="M44.951 38.3846C44.951 38.8438 44.5809 39.2165 44.125 39.2165C43.6691 39.2165 43.2991 38.8438 43.2991 38.3846C43.2991 37.9254 43.6691 37.5527 44.125 37.5527C44.5809 37.5527 44.951 37.9254 44.951 38.3846Z" fill="#FFF9F4"/>
<path d="M119.257 38.3846C119.257 38.8438 118.887 39.2165 118.431 39.2165C117.976 39.2165 117.605 38.8438 117.605 38.3846C117.605 37.9254 117.976 37.5527 118.431 37.5527C118.887 37.5527 119.257 37.9254 119.257 38.3846Z" fill="#FFF9F4"/>
<path d="M58.6341 37.8613H57.5032C57.4509 37.8613 57.4084 37.904 57.4084 37.9567V45.8106C57.4084 45.8633 57.4509 45.9061 57.5032 45.9061H58.6341C58.6864 45.9061 58.7288 45.8633 58.7288 45.8106V37.9567C58.7288 37.904 58.6864 37.8613 58.6341 37.8613Z" fill="#FFF9F4"/>
<path d="M84.7213 44.7968C85.6775 44.7909 86.4501 43.95 86.4442 42.9154C86.4383 41.8807 85.6597 41.0458 84.7035 41.0518C83.7473 41.0577 82.9746 41.8986 82.9805 42.9333C82.9864 43.9679 83.765 44.8028 84.7213 44.7968ZM82.9154 37.8613C82.9598 37.8613 82.9983 37.8971 82.9983 37.9448V40.4614C82.9983 40.5479 83.096 40.5956 83.167 40.5449C83.8923 40.0082 84.6798 39.8352 85.5265 40.0261C87.0363 40.366 87.8178 41.5736 87.7438 43.0674C87.6136 45.6198 85.1475 46.6396 83.1197 45.3037C83.0457 45.256 82.948 45.3067 82.948 45.3962V45.748C82.948 45.8345 82.8769 45.9061 82.7881 45.9061H81.8556C81.7608 45.9061 81.6809 45.8255 81.6809 45.7301V37.9448C81.6839 37.8971 81.7224 37.8613 81.7697 37.8613H82.9154Z" fill="#FFF9F4"/>
<path d="M112.993 44.7968C113.946 44.7998 114.722 43.962 114.725 42.9273C114.728 41.8926 113.955 41.0548 112.999 41.0518C112.046 41.0488 111.27 41.8867 111.267 42.9213C111.264 43.956 112.037 44.7939 112.993 44.7968ZM116.024 37.9448V45.7301C116.024 45.8285 115.948 45.9061 115.85 45.9061H114.917C114.828 45.9061 114.757 45.8345 114.757 45.748V45.3962C114.757 45.3067 114.66 45.256 114.586 45.3037C112.558 46.6396 110.092 45.6198 109.965 43.0674C109.891 41.5736 110.672 40.366 112.182 40.0261C113.029 39.8352 113.816 40.0082 114.541 40.5449C114.612 40.5956 114.71 40.5479 114.71 40.4614V37.9448C114.71 37.9001 114.749 37.8613 114.793 37.8613H115.939C115.986 37.8613 116.024 37.9001 116.024 37.9448Z" fill="#FFF9F4"/>
<path d="M25.7259 39.4534L25.7378 44.6178C25.7378 44.6774 25.7851 44.7251 25.8443 44.7251H27.6472C29.0919 44.7192 30.2642 43.5622 30.2613 42.14V41.9193C30.2613 40.494 29.083 39.3401 27.6354 39.3431H25.8325C25.7763 39.3461 25.7259 39.3938 25.7259 39.4534ZM24.3286 38.2935C24.3286 38.219 24.3878 38.1564 24.4648 38.1564L27.7864 38.1504C29.9208 38.1474 31.6556 39.8381 31.6586 41.9283V42.1191C31.6616 44.2093 29.9356 45.9059 27.7982 45.9089L24.4766 45.9148C24.4026 45.9148 24.3405 45.8552 24.3405 45.7777L24.3286 38.2935Z" fill="#FFF9F4"/>
<path d="M68.868 38.1543C69.0545 38.1543 69.2174 38.1603 69.3624 38.1722C69.4542 38.1782 69.5341 38.2408 69.5637 38.3302L71.34 43.8613C71.3607 43.9269 71.4554 43.9269 71.4762 43.8613L73.2731 38.2318C73.2879 38.1901 73.3264 38.1632 73.3679 38.1632H74.5875C74.629 38.1632 74.6586 38.205 74.6468 38.2437L72.2488 45.7488C72.2163 45.8472 72.1274 45.9128 72.0238 45.9128H70.9048C70.7953 45.9128 70.6976 45.8412 70.665 45.7369L68.942 40.4085C68.9332 40.3787 68.9184 40.3548 68.9036 40.3489C68.8917 40.3489 68.8769 40.3429 68.8651 40.3429C68.8532 40.3429 68.8414 40.3459 68.8295 40.3489C68.8147 40.3548 68.797 40.3787 68.7881 40.4085L67.0563 45.7339C67.0237 45.8382 66.926 45.9098 66.8165 45.9098H65.6974C65.5968 45.9068 65.505 45.8412 65.4724 45.7428L63.0893 38.2348C63.0745 38.1931 63.1041 38.1543 63.1485 38.1543H64.3682C64.4096 38.1543 64.4481 38.1841 64.4629 38.2229L66.2481 43.8554C66.2717 43.924 66.3635 43.924 66.3842 43.8584L68.1723 38.3302C68.199 38.2378 68.2789 38.1752 68.3736 38.1692C68.5157 38.1603 68.6815 38.1543 68.868 38.1543Z" fill="#FFF9F4"/>
<path d="M92.1696 43.9621C93.0252 44.6121 94.0525 44.8477 95.2544 44.6688C96.4771 44.4839 96.4948 43.1899 95.3077 42.8857C93.5078 42.4235 91.5509 42.0926 91.7848 40.2081C92.1016 37.6557 95.4942 37.9181 97.1668 38.756C97.2112 38.7769 97.232 38.8306 97.2172 38.8812L96.9122 39.8324C96.8915 39.898 96.8175 39.9248 96.7613 39.892C95.9738 39.4358 93.1762 38.7351 93.1555 40.3572C93.1495 40.7418 93.4337 41.0877 93.8423 41.1951C95.7103 41.6751 98.4635 42.0449 97.3148 44.6837C97.1343 45.0982 96.708 45.4262 96.03 45.6617C94.6712 46.1358 93.2443 45.9658 91.7433 45.1518C91.6782 45.116 91.6457 45.0385 91.6693 44.967L91.9713 44.0247C91.9979 43.9412 92.0986 43.9084 92.1696 43.9621Z" fill="#FFF9F4"/>
<path d="M46.6175 38.9826C46.6175 38.9439 46.6471 38.9141 46.6856 38.9141H47.855C47.8964 38.9141 47.932 38.9498 47.932 38.9916V40.1068C47.932 40.1843 47.9941 40.2469 48.0711 40.2469H49.4003C49.4536 40.2469 49.498 40.2916 49.498 40.3453V41.1712C49.498 41.2249 49.4536 41.2696 49.4003 41.2696H48.1244C48.0237 41.2696 47.9438 41.3501 47.9408 41.4515C47.9408 41.5917 47.932 42.3073 47.929 43.5984C47.926 44.7702 48.3967 45.0922 49.4181 44.6211C49.4625 44.6032 49.5158 44.6241 49.5306 44.6718L49.7941 45.4918C49.8089 45.5335 49.7852 45.5812 49.7437 45.6021C48.1954 46.3386 46.6027 45.781 46.6116 43.8965C46.6205 42.4504 46.6205 41.6453 46.6175 41.4873C46.6175 41.368 46.5198 41.2756 46.4014 41.2756H45.7649C45.6968 41.2756 45.6436 41.2189 45.6436 41.1504V40.4109C45.6436 40.3185 45.7176 40.2439 45.8093 40.2439H46.4429C46.5406 40.2439 46.6175 40.1664 46.6175 40.068V38.9826Z" fill="#FFF9F4"/>
<path d="M99.0199 38.9826C99.0199 38.9439 99.0495 38.9141 99.088 38.9141H100.254C100.299 38.9141 100.331 38.9498 100.331 38.9916V40.1068C100.331 40.1843 100.394 40.2469 100.471 40.2469H101.8C101.853 40.2469 101.897 40.2916 101.897 40.3453V41.1712C101.897 41.2249 101.853 41.2696 101.8 41.2696H100.524C100.423 41.2696 100.343 41.3501 100.34 41.4515C100.337 41.5917 100.331 42.3073 100.328 43.5984C100.325 44.7702 100.796 45.0922 101.817 44.6211C101.862 44.6002 101.912 44.6241 101.93 44.6718L102.193 45.4918C102.205 45.5335 102.185 45.5812 102.143 45.6021C100.595 46.3386 99.0021 45.781 99.011 43.8965C99.0199 42.4474 99.0229 41.6453 99.0169 41.4873C99.014 41.368 98.9193 41.2756 98.8008 41.2756H98.1643C98.0992 41.2756 98.043 41.2189 98.043 41.1504V40.4109C98.043 40.3185 98.117 40.2439 98.2088 40.2439H98.8423C98.94 40.2439 99.0169 40.1634 99.0169 40.068V38.9826H99.0199Z" fill="#FFF9F4"/>
<path d="M34.0596 39.9492H32.9346C32.8807 39.9492 32.8369 39.9933 32.8369 40.0476V45.8083C32.8369 45.8627 32.8807 45.9067 32.9346 45.9067H34.0596C34.1135 45.9067 34.1573 45.8627 34.1573 45.8083V40.0476C34.1573 39.9933 34.1135 39.9492 34.0596 39.9492Z" fill="#FFF9F4"/>
<path d="M40.4305 42.781C40.4305 41.8179 39.6578 41.0397 38.7016 41.0397C37.7454 41.0397 36.9727 41.8179 36.9727 42.781C36.9727 43.7441 37.7454 44.5223 38.7016 44.5223C39.6578 44.5223 40.4305 43.7441 40.4305 42.781ZM40.463 40.4701C40.4719 40.4016 40.463 40.3091 40.4364 40.1899C40.4068 40.0646 40.5015 39.9424 40.6318 39.9424H41.4962C41.6147 39.9424 41.7123 40.0408 41.7123 40.16C41.7271 42.5275 41.7212 44.242 41.6946 45.3035C41.6206 48.4821 38.0089 48.4284 36.0372 47.2804C35.9721 47.2417 35.9484 47.1582 35.9869 47.0926L36.431 46.3173C36.4665 46.2577 36.5405 46.2368 36.5967 46.2726C37.9615 47.0687 40.4453 47.4265 40.4127 45.0948C40.4127 45.0203 40.3269 44.9756 40.2647 45.0203C38.2339 46.4664 35.4451 45.1485 35.6761 42.5007C35.8803 40.1481 38.5358 39.2178 40.2617 40.5536C40.3387 40.6133 40.4512 40.5656 40.463 40.4701Z" fill="#FFF9F4"/>
<path d="M44.72 39.9473H43.5891C43.5368 39.9473 43.4944 39.99 43.4944 40.0427V45.8094C43.4944 45.8621 43.5368 45.9048 43.5891 45.9048H44.72C44.7723 45.9048 44.8147 45.8621 44.8147 45.8094V40.0427C44.8147 39.99 44.7723 39.9473 44.72 39.9473Z" fill="#FFF9F4"/>
<path d="M54.2614 43.519C53.8232 43.4713 53.246 43.5011 52.5266 43.6115C52.2305 43.6562 52.0292 43.9544 52.0766 44.2734C52.1151 44.5209 52.2542 44.6968 52.497 44.7982C53.2785 45.1262 53.9624 44.9503 54.5515 44.2704C54.7913 43.9931 54.6226 43.5608 54.2614 43.519ZM54.4834 45.3916C53.7196 45.9491 52.8641 46.0654 51.9197 45.7434C50.6971 45.326 50.2974 43.8709 51.3987 43.0598C52.1388 42.5172 53.2637 42.6364 54.4716 42.6185C54.5782 42.6156 54.6581 42.5172 54.6403 42.4098C54.4301 41.238 53.7048 40.8295 52.4703 41.1784C52.0588 41.2947 51.748 41.4497 51.5378 41.6495C51.4608 41.724 51.3335 41.6882 51.301 41.5869L51.0168 40.7043C50.9901 40.6238 51.0286 40.5373 51.1026 40.5015C52.9914 39.5951 55.7978 39.5265 55.9015 42.3472C55.9399 43.4355 55.9459 44.5775 55.9192 45.7792C55.9163 45.8507 55.86 45.9074 55.789 45.9074H54.7972C54.7262 45.9074 54.667 45.8507 54.667 45.7792V45.487C54.667 45.3916 54.5604 45.3349 54.4834 45.3916Z" fill="#FFF9F4"/>
<path d="M76.13 42.636L79.1556 42.6181C79.1822 42.6181 79.203 42.5973 79.203 42.5704V42.5525C79.2 41.6938 78.5013 40.9991 77.6428 41.005H77.631C76.7725 41.011 76.0797 41.7087 76.0827 42.5704V42.5883C76.0827 42.6152 76.1064 42.636 76.13 42.636ZM80.3013 43.5246H76.2396C76.0797 43.5246 75.9909 43.7094 76.0886 43.8347C76.9501 44.9618 78.0425 45.1138 79.3628 44.2909C79.3983 44.267 79.4487 44.273 79.4783 44.3028L80.0881 44.9171C80.1236 44.9528 80.1207 45.0125 80.0822 45.0453C78.377 46.5332 75.159 46.0561 74.7682 43.6021C74.5936 42.5078 74.8511 41.5775 75.5439 40.8142C76.3994 39.872 78.1224 39.6901 79.197 40.3967C80.0911 40.9841 80.5233 41.9651 80.4966 43.3338C80.4937 43.4411 80.4078 43.5246 80.3013 43.5246Z" fill="#FFF9F4"/>
<path d="M107.351 45.2905C105.708 46.6353 103.339 45.7617 103.301 43.4508C103.292 42.762 103.289 41.626 103.298 40.0397C103.298 39.989 103.339 39.9502 103.39 39.9502H104.515C104.571 39.9502 104.615 39.995 104.615 40.0516V43.4508C104.615 44.2052 105.267 44.7926 106.013 44.7091L106.169 44.6942C106.892 44.6137 107.437 43.9994 107.437 43.2689V40.0367C107.437 39.986 107.475 39.9473 107.522 39.9473H108.677C108.721 39.9473 108.757 39.986 108.757 40.0308V45.7467C108.757 45.8362 108.686 45.9078 108.6 45.9078H107.673C107.587 45.9078 107.516 45.8362 107.516 45.7467V45.3681C107.516 45.2816 107.419 45.2369 107.351 45.2905Z" fill="#FFF9F4"/>
<path d="M119.02 39.9492H117.901C117.846 39.9492 117.801 39.9946 117.801 40.0506V45.8053C117.801 45.8613 117.846 45.9067 117.901 45.9067H119.02C119.076 45.9067 119.121 45.8613 119.121 45.8053V40.0506C119.121 39.9946 119.076 39.9492 119.02 39.9492Z" fill="#FFF9F4"/>
<path d="M123.648 44.7981C124.601 44.7981 125.374 43.9602 125.374 42.9255C125.374 41.8909 124.601 41.053 123.648 41.053C122.694 41.053 121.922 41.8909 121.922 42.9255C121.922 43.9602 122.694 44.7981 123.648 44.7981ZM126.709 42.9524C126.694 44.6102 125.311 45.9401 123.621 45.9252C121.931 45.9103 120.572 44.5565 120.587 42.8987C120.601 41.2409 121.984 39.911 123.674 39.9259C125.365 39.9408 126.723 41.2945 126.709 42.9524Z" fill="#FFF9F4"/>
</g>
<defs>
<clipPath id="clip0_110_1143">
<rect width="148" height="48" fill="white"/>
</clipPath>
</defs>
</svg>
